<svg width="159" height="159" viewBox="0 0 159 159" fill="none" xmlns="http://www.w3.org/2000/svg">
<circle cx="79.5" cy="79.5" r="79.5" fill="#4CA757"/>
<path d="M62.288 95V61.464L54.928 67.032L50.832 60.568L64.08 51.032H71.056V95H62.288ZM90.991 66.648C98.479 66.648 104.687 72.024 104.687 80.792C104.687 89.496 98.287 95.576 89.007 95.576C82.991 95.576 77.487 93.208 73.775 88.6L80.047 83.608C81.775 85.976 84.655 87.64 88.175 87.64C92.847 87.64 95.855 84.632 95.855 80.664C95.855 76.056 91.887 73.752 88.367 73.752C85.935 73.752 83.823 74.328 81.711 75.992L77.039 74.328L78.383 51.032H102.447V58.968H86.063L85.551 67.544C87.535 66.968 89.519 66.648 90.991 66.648Z" fill="white"/>
<path d="M44.056 124V115.48H49.276V116.428H45.1V119.284H48.52V120.232H45.1V123.052H49.528V124H44.056ZM50.5093 124L53.4013 119.74L50.5453 115.48H51.7573L54.0973 118.924H54.1093L56.4373 115.48H57.6493L54.7813 119.74L57.6853 124H56.4493L54.0973 120.568H54.0733L51.7213 124H50.5093ZM59.1263 124V115.48H62.1023C64.0943 115.48 64.9223 116.608 64.9223 118.12C64.9223 119.92 63.6983 120.748 61.9223 120.748H60.1703V124H59.1263ZM60.1703 119.8H61.8263C63.2423 119.8 63.8423 119.08 63.8423 118.096C63.8423 117.004 63.1343 116.428 61.9943 116.428H60.1703V119.8ZM66.4857 124V115.48H71.7057V116.428H67.5297V119.284H70.9497V120.232H67.5297V123.052H71.9577V124H66.4857ZM73.599 124V115.48H76.623C78.591 115.48 79.443 116.608 79.443 118.12C79.443 119.548 78.663 120.376 77.319 120.652L79.671 124H78.423L76.167 120.748H74.643V124H73.599ZM74.643 119.8H76.335C77.751 119.8 78.363 119.08 78.363 118.096C78.363 117.004 77.655 116.428 76.479 116.428H74.643V119.8ZM81.3582 124V115.48H82.4022V124H81.3582ZM84.5794 124V115.48H89.7994V116.428H85.6234V119.284H89.0434V120.232H85.6234V123.052H90.0514V124H84.5794ZM91.6927 124V115.48H92.7247L97.5367 122.26H97.5487V115.48H98.5927V124H97.5247L92.7607 117.292H92.7367V124H91.6927ZM104.58 124.06C102.276 124.06 100.332 122.548 100.332 119.764C100.332 117.352 101.844 115.396 104.568 115.396C105.792 115.396 106.992 115.924 107.892 117.028L107.112 117.676C106.404 116.8 105.528 116.392 104.568 116.392C102.636 116.392 101.424 117.808 101.424 119.764C101.424 121.804 102.78 123.076 104.58 123.076C105.684 123.076 106.524 122.548 107.124 121.792L107.904 122.452C107.16 123.376 106.08 124.06 104.58 124.06ZM109.388 124V115.48H114.608V116.428H110.432V119.284H113.852V120.232H110.432V123.052H114.86V124H109.388Z" fill="white"/>
<path d="M62.288 95V61.464L54.928 67.032L50.832 60.568L64.08 51.032H71.056V95H62.288ZM90.991 66.648C98.479 66.648 104.687 72.024 104.687 80.792C104.687 89.496 98.287 95.576 89.007 95.576C82.991 95.576 77.487 93.208 73.775 88.6L80.047 83.608C81.775 85.976 84.655 87.64 88.175 87.64C92.847 87.64 95.855 84.632 95.855 80.664C95.855 76.056 91.887 73.752 88.367 73.752C85.935 73.752 83.823 74.328 81.711 75.992L77.039 74.328L78.383 51.032H102.447V58.968H86.063L85.551 67.544C87.535 66.968 89.519 66.648 90.991 66.648Z" fill="white"/>
<path d="M44.056 124V115.48H49.276V116.428H45.1V119.284H48.52V120.232H45.1V123.052H49.528V124H44.056ZM50.5093 124L53.4013 119.74L50.5453 115.48H51.7573L54.0973 118.924H54.1093L56.4373 115.48H57.6493L54.7813 119.74L57.6853 124H56.4493L54.0973 120.568H54.0733L51.7213 124H50.5093ZM59.1263 124V115.48H62.1023C64.0943 115.48 64.9223 116.608 64.9223 118.12C64.9223 119.92 63.6983 120.748 61.9223 120.748H60.1703V124H59.1263ZM60.1703 119.8H61.8263C63.2423 119.8 63.8423 119.08 63.8423 118.096C63.8423 117.004 63.1343 116.428 61.9943 116.428H60.1703V119.8ZM66.4857 124V115.48H71.7057V116.428H67.5297V119.284H70.9497V120.232H67.5297V123.052H71.9577V124H66.4857ZM73.599 124V115.48H76.623C78.591 115.48 79.443 116.608 79.443 118.12C79.443 119.548 78.663 120.376 77.319 120.652L79.671 124H78.423L76.167 120.748H74.643V124H73.599ZM74.643 119.8H76.335C77.751 119.8 78.363 119.08 78.363 118.096C78.363 117.004 77.655 116.428 76.479 116.428H74.643V119.8ZM81.3582 124V115.48H82.4022V124H81.3582ZM84.5794 124V115.48H89.7994V116.428H85.6234V119.284H89.0434V120.232H85.6234V123.052H90.0514V124H84.5794ZM91.6927 124V115.48H92.7247L97.5367 122.26H97.5487V115.48H98.5927V124H97.5247L92.7607 117.292H92.7367V124H91.6927ZM104.58 124.06C102.276 124.06 100.332 122.548 100.332 119.764C100.332 117.352 101.844 115.396 104.568 115.396C105.792 115.396 106.992 115.924 107.892 117.028L107.112 117.676C106.404 116.8 105.528 116.392 104.568 116.392C102.636 116.392 101.424 117.808 101.424 119.764C101.424 121.804 102.78 123.076 104.58 123.076C105.684 123.076 106.524 122.548 107.124 121.792L107.904 122.452C107.16 123.376 106.08 124.06 104.58 124.06ZM109.388 124V115.48H114.608V116.428H110.432V119.284H113.852V120.232H110.432V123.052H114.86V124H109.388Z" fill="white"/>
</svg>
