<svg width="159" height="159" viewBox="0 0 159 159" fill="none" xmlns="http://www.w3.org/2000/svg">
<circle cx="79.5" cy="79.5" r="79.5" fill="#4CA757"/>
<path d="M103 55.53V55.25C103.009 50.3524 101.211 45.6237 97.9484 41.9706C94.6863 38.3175 90.1906 35.9972 85.3231 35.4544C80.4557 34.9117 75.5593 36.1847 71.5726 39.0295C67.5859 41.8743 64.7897 46.0906 63.72 50.87H63.25C59.4707 50.87 55.8461 52.3713 53.1737 55.0437C50.5013 57.7161 49 61.3406 49 65.12C49 68.8993 50.5013 72.5238 53.1737 75.1962C55.8461 77.8686 59.4707 79.37 63.25 79.37H71V75.37H63.25C60.5315 75.37 57.9244 74.29 56.0022 72.3678C54.0799 70.4455 53 67.8384 53 65.12C53 62.4015 54.0799 59.7944 56.0022 57.8721C57.9244 55.9499 60.5315 54.87 63.25 54.87C63.836 54.8609 64.4217 54.9044 65 55C65.2686 55.0506 65.5447 55.0457 65.8113 54.9855C66.0778 54.9253 66.3293 54.8111 66.55 54.65C66.7716 54.4892 66.9578 54.2847 67.0971 54.049C67.2365 53.8133 67.3259 53.5516 67.36 53.28C67.8563 49.266 69.8654 45.5926 72.9775 43.0094C76.0896 40.4261 80.0701 39.1277 84.1068 39.3791C88.1436 39.6304 91.9323 41.4125 94.6999 44.3619C97.4675 47.3112 99.0055 51.2054 99 55.25C99.0006 55.8716 98.9639 56.4927 98.89 57.11C98.8544 57.3928 98.8796 57.68 98.964 57.9523C99.0484 58.2246 99.1901 58.4757 99.3795 58.6887C99.5689 58.9018 99.8016 59.0719 100.062 59.1877C100.323 59.3035 100.605 59.3622 100.89 59.36H101C103.122 59.36 105.157 60.2028 106.657 61.7031C108.157 63.2034 109 65.2382 109 67.36C109 69.4817 108.157 71.5165 106.657 73.0168C105.157 74.5171 103.122 75.36 101 75.36H91V79.36H101C104.007 79.3568 106.903 78.225 109.115 76.1886C111.327 74.1523 112.694 71.3597 112.945 68.3636C113.197 65.3674 112.314 62.3861 110.473 60.0095C108.631 57.6329 105.964 56.0342 103 55.53Z" fill="white"/>
<path d="M79 67.36V83.8L74.59 79.39L71.76 82.22L79.59 90C79.9647 90.3725 80.4716 90.5816 81 90.5816C81.5284 90.5816 82.0353 90.3725 82.41 90L90.24 82.18L87.41 79.35L83 83.8V67.36H79Z" fill="white"/>
<path d="M24.968 119V111.19H27.3C29.775 111.19 31.359 112.796 31.359 115.106C31.359 117.405 29.83 119 27.333 119H24.968ZM25.925 118.131H27.278C29.181 118.131 30.369 116.866 30.369 115.106C30.369 113.324 29.137 112.059 27.311 112.059H25.925V118.131ZM36.5354 119.066C34.2584 119.066 32.6084 117.416 32.6084 115.095C32.6084 112.774 34.2584 111.113 36.5354 111.113C38.7244 111.113 40.4294 112.708 40.4294 115.095C40.4294 117.471 38.7244 119.066 36.5354 119.066ZM36.5354 118.164C38.1524 118.164 39.4284 116.899 39.4284 115.095C39.4284 113.28 38.1524 112.015 36.5354 112.015C34.8414 112.015 33.6094 113.324 33.6094 115.095C33.6094 116.855 34.8414 118.164 36.5354 118.164ZM43.4564 119L40.9704 111.19H41.9934L43.9184 117.449H43.9404L45.7004 111.19H46.7454L48.4944 117.438H48.5164L50.4524 111.19H51.4644L48.9674 119H48.0434L46.2394 112.587H46.2174L44.3804 119H43.4564ZM52.7903 119V111.19H53.7363L58.1473 117.405H58.1583V111.19H59.1153V119H58.1363L53.7693 112.851H53.7473V119H52.7903ZM61.051 119V111.19H62.008V118.131H65.869V119H61.051ZM70.4378 119.066C68.1608 119.066 66.5108 117.416 66.5108 115.095C66.5108 112.774 68.1608 111.113 70.4378 111.113C72.6268 111.113 74.3318 112.708 74.3318 115.095C74.3318 117.471 72.6268 119.066 70.4378 119.066ZM70.4378 118.164C72.0548 118.164 73.3308 116.899 73.3308 115.095C73.3308 113.28 72.0548 112.015 70.4378 112.015C68.7438 112.015 67.5118 113.324 67.5118 115.095C67.5118 116.855 68.7438 118.164 70.4378 118.164ZM74.8492 119L77.8082 111.19H78.7652L81.7352 119H80.7342L80.0302 117.097H76.5432L75.8502 119H74.8492ZM76.8512 116.261H79.7332L78.2922 112.345H78.2702L76.8512 116.261ZM82.9758 119V111.19H85.3078C87.7828 111.19 89.3668 112.796 89.3668 115.106C89.3668 117.405 87.8378 119 85.3408 119H82.9758ZM83.9328 118.131H85.2858C87.1888 118.131 88.3768 116.866 88.3768 115.106C88.3768 113.324 87.1448 112.059 85.3188 112.059H83.9328V118.131ZM93.9543 119V111.19H96.6823C98.5083 111.19 99.2673 112.224 99.2673 113.61C99.2673 115.26 98.1453 116.019 96.5173 116.019H94.9113V119H93.9543ZM94.9113 115.15H96.4293C97.7273 115.15 98.2773 114.49 98.2773 113.588C98.2773 112.587 97.6283 112.059 96.5833 112.059H94.9113V115.15ZM100.7 119V111.19H103.472C105.276 111.19 106.057 112.224 106.057 113.61C106.057 114.919 105.342 115.678 104.11 115.931L106.266 119H105.122L103.054 116.019H101.657V119H100.7ZM101.657 115.15H103.208C104.506 115.15 105.067 114.49 105.067 113.588C105.067 112.587 104.418 112.059 103.34 112.059H101.657V115.15ZM111.075 119.066C108.798 119.066 107.148 117.416 107.148 115.095C107.148 112.774 108.798 111.113 111.075 111.113C113.264 111.113 114.969 112.708 114.969 115.095C114.969 117.471 113.264 119.066 111.075 119.066ZM111.075 118.164C112.692 118.164 113.968 116.899 113.968 115.095C113.968 113.28 112.692 112.015 111.075 112.015C109.381 112.015 108.149 113.324 108.149 115.095C108.149 116.855 109.381 118.164 111.075 118.164ZM116.567 119V111.19H121.55V112.059H117.524V114.809H120.934V115.678H117.524V119H116.567ZM122.992 119V111.19H123.949V119H122.992ZM125.945 119V111.19H126.902V118.131H130.763V119H125.945ZM132.068 119V111.19H136.853V112.059H133.025V114.677H136.16V115.546H133.025V118.131H137.084V119H132.068Z" fill="white"/>
</svg>
