<svg width="159" height="159" viewBox="0 0 159 159" fill="none" xmlns="http://www.w3.org/2000/svg">
<circle cx="79.5" cy="79.5" r="79.5" fill="#4CA757"/>
<path d="M61.816 66.648C69.304 66.648 75.512 72.024 75.512 80.792C75.512 89.496 69.112 95.576 59.832 95.576C53.816 95.576 48.312 93.208 44.6 88.6L50.872 83.608C52.6 85.976 55.48 87.64 59 87.64C63.672 87.64 66.68 84.632 66.68 80.664C66.68 76.056 62.712 73.752 59.192 73.752C56.76 73.752 54.648 74.328 52.536 75.992L47.864 74.328L49.208 51.032H73.272V58.968H56.888L56.376 67.544C58.36 66.968 60.344 66.648 61.816 66.648ZM94.0835 95.576C83.9075 95.576 76.9315 87.256 76.9315 73.048C76.9315 59.608 83.4595 50.52 94.0835 50.52C104.26 50.52 111.236 58.776 111.236 73.048C111.236 86.488 104.772 95.576 94.0835 95.576ZM94.0835 87.448C99.2035 87.448 102.34 82.392 102.34 73.048C102.34 64.088 99.3315 58.584 94.0835 58.584C89.0275 58.584 85.8275 63.704 85.8275 73.048C85.8275 81.88 88.9635 87.448 94.0835 87.448Z" fill="white"/>
<path d="M50.932 124.06C48.628 124.06 46.684 122.548 46.684 119.764C46.684 117.352 48.196 115.396 50.92 115.396C52.144 115.396 53.344 115.924 54.244 117.028L53.464 117.676C52.756 116.8 51.88 116.392 50.92 116.392C48.988 116.392 47.776 117.808 47.776 119.764C47.776 121.804 49.132 123.076 50.932 123.076C52.036 123.076 52.876 122.548 53.476 121.792L54.256 122.452C53.512 123.376 52.432 124.06 50.932 124.06ZM58.9196 124.072C56.9636 124.072 55.6196 122.776 55.6196 120.532V115.48H56.6636V120.46C56.6636 122.032 57.5396 123.088 58.9196 123.088C60.2396 123.088 61.1876 122.104 61.1876 120.46V115.48H62.2316V120.532C62.2316 122.716 60.9476 124.072 58.9196 124.072ZM66.6723 124.072C65.6043 124.072 64.5123 123.664 63.6603 122.752L64.3323 121.948C64.9443 122.716 65.8563 123.1 66.6842 123.1C67.7283 123.1 68.4363 122.62 68.4363 121.792C68.4363 120.844 67.6683 120.592 66.5283 120.16C65.2683 119.692 63.9843 119.152 63.9843 117.652C63.9843 116.38 65.1243 115.396 66.5883 115.396C67.5363 115.396 68.4723 115.744 69.2763 116.392L68.6403 117.22C67.9563 116.656 67.2243 116.356 66.5883 116.356C65.7843 116.356 65.0763 116.788 65.0643 117.604C65.0523 118.42 65.8203 118.72 66.8883 119.128C68.3163 119.692 69.5283 120.076 69.5283 121.672C69.5283 123.232 68.1603 124.072 66.6723 124.072ZM72.8571 124V116.428H70.3131V115.48H76.4811V116.428H73.9011V124H72.8571ZM81.2258 124.072C78.7418 124.072 76.9418 122.272 76.9418 119.74C76.9418 117.208 78.7418 115.396 81.2258 115.396C83.6138 115.396 85.4738 117.136 85.4738 119.74C85.4738 122.332 83.6138 124.072 81.2258 124.072ZM81.2258 123.088C82.9898 123.088 84.3818 121.708 84.3818 119.74C84.3818 117.76 82.9898 116.38 81.2258 116.38C79.3778 116.38 78.0338 117.808 78.0338 119.74C78.0338 121.66 79.3778 123.088 81.2258 123.088ZM87.2162 124V115.48H88.2722L91.4042 120.988H91.4282L94.5602 115.48H95.6042V124H94.5602V117.508H94.5362L91.7642 122.284H91.0562L88.2842 117.508H88.2722V124H87.2162ZM97.7162 124V115.48H102.936V116.428H98.7602V119.284H102.18V120.232H98.7602V123.052H103.188V124H97.7162ZM104.829 124V115.48H107.853C109.821 115.48 110.673 116.608 110.673 118.12C110.673 119.548 109.893 120.376 108.549 120.652L110.901 124H109.653L107.397 120.748H105.873V124H104.829ZM105.873 119.8H107.565C108.981 119.8 109.593 119.08 109.593 118.096C109.593 117.004 108.885 116.428 107.709 116.428H105.873V119.8Z" fill="white"/>
</svg>
